<svg width="399" height="212" viewBox="0 0 399 212" fill="none" xmlns="http://www.w3.org/2000/svg">
<path d="M0.490234 101.408C3.8446 100.929 6.85669 100.074 9.5265 98.8414C12.1963 97.5407 14.3869 96.0689 16.0983 94.4259C17.8097 92.783 19.2816 90.7977 20.5138 88.4702C21.746 86.1427 22.6701 83.9521 23.2863 81.8984C23.9708 79.8447 24.4842 77.4829 24.8265 74.8131C25.1688 72.0749 25.3742 69.85 25.4426 68.1386C25.5111 66.3587 25.5453 64.2708 25.5453 61.8748C25.5453 60.3688 25.4426 57.1171 25.2373 52.1198C25.0319 47.1225 24.9292 43.6312 24.9292 41.6459C24.9292 39.1815 24.9634 37.1963 25.0319 35.6902C25.1004 34.1157 25.2373 32.1647 25.4426 29.8372C25.7165 27.5097 26.093 25.5929 26.5722 24.0868C27.1198 22.5123 27.8386 20.7325 28.7286 18.7472C29.6869 16.6935 30.8507 14.9821 32.2198 13.613C33.589 12.2439 35.2661 10.8063 37.2514 9.30022C39.3051 7.72572 41.6326 6.42505 44.234 5.3982C46.8353 4.3029 49.8816 3.27605 53.3729 2.31766C56.9326 1.35927 60.8347 0.606246 65.079 0.0585938L66.5166 5.09015C64.1206 5.36397 61.7931 5.94585 59.534 6.83579C57.3434 7.72572 55.187 8.95794 53.0648 10.5324C51.0111 12.1069 49.334 14.2976 48.0333 17.1043C46.8011 19.8425 46.185 22.9915 46.185 26.5513C46.185 28.8103 46.4588 33.4654 47.0064 40.5164C47.5541 47.499 47.8279 53.2835 47.8279 57.8701C47.8279 59.9923 47.7595 61.9091 47.6226 63.6205C47.5541 65.2634 47.2803 67.454 46.8011 70.1923C46.3219 72.9306 45.6373 75.4292 44.7474 77.6883C43.9259 79.9474 42.6595 82.5145 40.948 85.3897C39.3051 88.1964 37.3198 90.7635 34.9923 93.091C32.7333 95.3501 29.8239 97.6434 26.2641 99.9709C22.7044 102.298 18.6997 104.318 14.25 106.029C18.6997 107.741 22.7044 109.76 26.2641 112.088C29.8239 114.415 32.7333 116.743 34.9923 119.07C37.3198 121.329 39.3051 123.862 40.948 126.669C42.6595 129.476 43.9259 132.009 44.7474 134.268C45.6373 136.527 46.3219 139.06 46.8011 141.866C47.2803 144.605 47.5541 146.829 47.6226 148.541C47.7595 150.184 47.8279 152.066 47.8279 154.188C47.8279 158.775 47.5541 164.56 47.0064 171.542C46.4588 178.593 46.185 183.248 46.185 185.507C46.185 189.067 46.8011 192.216 48.0333 194.954C49.334 197.693 51.0111 199.849 53.0648 201.423C55.187 203.066 57.3434 204.333 59.534 205.223C61.7931 206.113 64.1206 206.695 66.5166 206.968L65.079 212C60.8347 211.452 56.9326 210.699 53.3729 209.741C49.8816 208.783 46.8353 207.756 44.234 206.66C41.6326 205.634 39.3051 204.333 37.2514 202.758C35.2661 201.252 33.589 199.815 32.2198 198.446C30.8507 197.076 29.6869 195.365 28.7286 193.311C27.8386 191.326 27.1198 189.546 26.5722 187.972C26.093 186.466 25.7165 184.549 25.4426 182.221C25.2373 179.894 25.1004 177.943 25.0319 176.368C24.9634 174.862 24.9292 172.877 24.9292 170.413C24.9292 168.427 25.0319 164.936 25.2373 159.939C25.4426 154.941 25.5453 151.484 25.5453 149.568C25.5453 147.582 25.5111 145.734 25.4426 144.023C25.3742 142.243 25.1688 140.018 24.8265 137.348C24.4842 134.61 23.9708 132.214 23.2863 130.16C22.6701 128.107 21.746 125.916 20.5138 123.588C19.2816 121.261 17.8097 119.276 16.0983 117.633C14.3869 115.99 12.1963 114.552 9.5265 113.32C6.85669 112.019 3.8446 111.129 0.490234 110.65V101.408Z" fill="#985E6D"/>
<path d="M385.127 106.029C380.677 104.318 376.673 102.298 373.113 99.9709C369.553 97.6434 366.609 95.3501 364.282 93.091C362.023 90.7635 360.038 88.1964 358.326 85.3897C356.683 82.5145 355.417 79.9474 354.527 77.6883C353.705 75.4292 353.055 72.9306 352.576 70.1923C352.097 67.454 351.789 65.2634 351.652 63.6205C351.583 61.9091 351.549 59.9923 351.549 57.8701C351.549 53.2835 351.823 47.499 352.37 40.5164C352.918 33.4654 353.192 28.8103 353.192 26.5513C353.192 22.9915 352.542 19.8425 351.241 17.1043C350.009 14.2976 348.332 12.1069 346.209 10.5324C344.087 8.95794 341.897 7.72572 339.638 6.83579C337.447 5.94585 335.154 5.36397 332.758 5.09015L334.298 0.0585938C338.542 0.606246 342.41 1.35927 345.901 2.31766C349.461 3.27605 352.542 4.3029 355.143 5.3982C357.744 6.42505 360.038 7.72572 362.023 9.30022C364.077 10.8063 365.788 12.2439 367.157 13.613C368.526 14.9821 369.656 16.6935 370.546 18.7472C371.504 20.7325 372.223 22.5123 372.702 24.0868C373.25 25.5929 373.626 27.5097 373.832 29.8372C374.105 32.1647 374.277 34.1157 374.345 35.6902C374.413 37.1963 374.448 39.1815 374.448 41.6459C374.448 43.6312 374.345 47.1225 374.14 52.1198C373.934 57.1171 373.832 60.3688 373.832 61.8748C373.832 64.2708 373.866 66.3587 373.934 68.1386C374.003 69.85 374.208 72.0749 374.55 74.8131C374.893 77.4829 375.372 79.8447 375.988 81.8984C376.673 83.9521 377.631 86.1427 378.863 88.4702C380.095 90.7977 381.567 92.783 383.279 94.4259C384.99 96.0689 387.181 97.5407 389.85 98.8414C392.52 100.074 395.532 100.929 398.887 101.408V110.65C395.532 111.129 392.52 112.019 389.85 113.32C387.181 114.552 384.99 115.99 383.279 117.633C381.567 119.276 380.095 121.261 378.863 123.588C377.631 125.916 376.673 128.107 375.988 130.16C375.372 132.214 374.893 134.61 374.55 137.348C374.208 140.018 374.003 142.243 373.934 144.023C373.866 145.734 373.832 147.788 373.832 150.184C373.832 151.69 373.934 154.941 374.14 159.939C374.345 164.936 374.448 168.427 374.448 170.413C374.448 172.877 374.413 174.862 374.345 176.368C374.277 177.943 374.105 179.894 373.832 182.221C373.626 184.549 373.25 186.466 372.702 187.972C372.223 189.546 371.504 191.326 370.546 193.311C369.656 195.365 368.526 197.076 367.157 198.446C365.788 199.815 364.077 201.252 362.023 202.758C360.038 204.333 357.744 205.634 355.143 206.66C352.542 207.756 349.461 208.783 345.901 209.741C342.41 210.699 338.542 211.452 334.298 212L332.758 206.968C335.154 206.695 337.481 206.113 339.74 205.223C341.999 204.333 344.156 203.066 346.209 201.423C348.332 199.849 350.009 197.693 351.241 194.954C352.542 192.216 353.192 189.067 353.192 185.507C353.192 183.248 352.918 178.593 352.37 171.542C351.823 164.56 351.549 158.775 351.549 154.188C351.549 152.066 351.583 150.184 351.652 148.541C351.789 146.829 352.097 144.605 352.576 141.866C353.055 139.06 353.705 136.527 354.527 134.268C355.417 132.009 356.683 129.476 358.326 126.669C360.038 123.862 362.023 121.329 364.282 119.07C366.609 116.743 369.553 114.415 373.113 112.088C376.673 109.76 380.677 107.741 385.127 106.029Z" fill="#985E6D"/>
<path d="M248.223 81.5698C245.622 69.0422 240.83 59.3214 233.848 52.4073C226.933 45.4932 218.616 42.0361 208.895 42.0361C199.38 42.0361 191.986 44.2952 186.715 48.8133C181.513 53.3315 178.911 59.3556 178.911 66.8859C178.911 71.0617 179.288 74.5188 180.041 77.257C180.794 79.9953 182.334 82.6651 184.662 85.2664C186.989 87.7993 190.378 90.0584 194.827 92.0436C199.277 93.9604 205.096 95.8087 212.284 97.5886C216.186 98.547 219.574 99.4369 222.45 100.258C225.393 101.08 228.611 102.209 232.102 103.647C235.662 105.085 238.708 106.625 241.241 108.268C243.842 109.911 246.409 111.964 248.942 114.429C251.544 116.825 253.632 119.495 255.206 122.438C256.849 125.382 258.15 128.873 259.108 132.912C260.135 136.883 260.648 141.23 260.648 145.953C260.648 152.251 259.485 158.07 257.157 163.41C254.829 168.681 251.783 173.13 248.018 176.759C244.253 180.387 239.906 183.467 234.977 186C230.048 188.533 225.051 190.381 219.985 191.545C214.919 192.709 209.888 193.291 204.89 193.291C189.693 193.291 173.503 189.355 156.321 181.482C156.663 174.089 156.834 169.536 156.834 167.825C156.834 156.667 155.91 145.542 154.061 134.452C154.815 133.973 155.568 133.734 156.321 133.734C157.279 133.734 158.135 133.973 158.888 134.452C160.325 143.283 162.687 151.087 165.973 157.865C169.327 164.642 173.161 170.016 177.474 173.986C181.786 177.888 186.236 180.832 190.823 182.817C195.478 184.734 200.167 185.692 204.89 185.692C215.638 185.692 223.887 182.92 229.637 177.375C235.456 171.761 238.366 164.368 238.366 155.195C238.366 145.953 236.209 139.005 231.897 134.35C227.652 129.626 219.506 125.793 207.458 122.849C192.397 119.084 180.623 113.539 172.134 106.214C163.714 98.8208 159.504 89.0658 159.504 76.949C159.504 70.5825 160.531 64.9006 162.584 59.9033C164.706 54.8375 167.411 50.7986 170.696 47.7865C174.051 44.7059 177.953 42.173 182.402 40.1878C186.852 38.1341 191.233 36.7308 195.546 35.9777C199.927 35.1563 204.377 34.7455 208.895 34.7455C222.45 34.7455 236.552 37.8945 251.201 44.1925C250.791 48.2314 250.585 52.4415 250.585 56.8227C250.585 67.0912 251.407 75.3402 253.05 81.5698C252.16 81.9121 251.407 82.0832 250.791 82.0832C250.106 82.0832 249.25 81.9121 248.223 81.5698Z" fill="white"/>
</svg>
